<?xml version="1.0" encoding="iso-8859-1"?>
<!-- Generator: Adobe Illustrator 19.0.0, SVG Export Plug-In . SVG Version: 6.00 Build 0)  -->
<svg version="1.1" id="Layer_1" xmlns="http://www.w3.org/2000/svg" xmlns:xlink="http://www.w3.org/1999/xlink" x="0px" y="0px"
	 viewBox="0 0 488 488" style="enable-background:new 0 0 488 488;" xml:space="preserve">
<g transform="translate(0 -540.36)">
	<g>
		<g>
			<path d="M323.523,706.76c-0.2-0.2-0.4-0.4-0.6-0.6c-0.1-0.1-0.2-0.2-0.3-0.2c-0.3-0.2-0.6-0.5-0.9-0.7
				c-4.902-3.3-48.918-32.2-78.128-32.2c-28.51,0-72.426,28.9-77.428,32.2c-2.801,1.9-4.402,5-4.402,8.3s1.701,6.5,4.402,8.3
				c2.301,1.5,12.905,8.5,26.41,15.6v37.9c0,4.4,2.801,8.2,7.003,9.5c3.201,1,31.211,9.6,47.017,9.6c15.206,0,39.414-8.8,42.115-9.8
				c3.901-1.5,6.502-5.2,6.502-9.4v-37.9c3.901-2,7.603-4.1,10.904-6v22.5c0,5.5,4.502,10,10.004,10c5.502,0,10.004-4.5,10.004-10
				v-40.4c0.2-0.4,0.1-0.8,0.1-1.1h0c0-0.1,0-0.2,0-0.3c0-0.3-0.1-0.6-0.2-0.8c0-0.1-0.1-0.2-0.1-0.3c-0.1-0.3-0.2-0.6-0.3-0.8
				c0-0.1-0.1-0.2-0.1-0.3c-0.1-0.3-0.3-0.7-0.4-1c-0.2-0.3-0.4-0.7-0.6-1c-0.1-0.1-0.1-0.2-0.2-0.2c-0.2-0.2-0.3-0.4-0.5-0.6
				C323.723,706.96,323.623,706.86,323.523,706.76z M275.405,768.06c-8.503,2.7-21.108,6.3-28.61,6.3
				c-8.403,0-23.909-3.8-34.012-6.6v-21.1c10.704,4.3,21.608,7.3,30.911,7.3c9.603,0,20.808-3.1,31.711-7.4V768.06z M281.008,722.06
				c-0.1,0.1-0.3,0.1-0.4,0.2c-12.905,6.3-26.91,11.6-36.913,11.6c-9.604,0-23.308-5.3-36.113-11.6h-0.1
				c-5.902-2.9-11.604-6-16.506-8.9c15.806-9.2,38.714-20.5,52.819-20.5c14.505,0,37.614,11.3,53.519,20.5
				C292.312,716.26,286.81,719.26,281.008,722.06z"/>
			<path d="M437.264,705.96c-6.702-46-29.911-88-65.424-118.4c-35.513-30.4-81.129-47.2-128.247-47.2
				c-46.917,0-92.333,16.8-127.846,47.3c-35.613,30.6-58.721,72.9-65.024,119c-6.702,45.8,3.801,92.1,29.411,130.4
				c24.609,36.7,61.922,64.1,105.338,77.5l49.118,107.9c1.601,3.6,5.202,5.9,9.103,5.9s7.403-2.3,9.003-5.8l49.818-107.9
				C394.249,886.46,450.769,799.36,437.264,705.96z M292.712,896.76c-2.901,0.8-5.202,2.7-6.402,5.4l-42.615,92.2l-41.915-92.2
				c-1.2-2.7-3.601-4.7-6.402-5.5c-84.631-24-137.15-102.7-124.845-187.2c11.604-85,86.031-149.1,173.163-149.1
				c86.832,0,161.559,63.8,173.863,148.5C429.862,793.76,377.342,872.76,292.712,896.76z"/>
			<path d="M243.594,601.36c-73.627,0-133.548,59.2-133.548,132c0,35.4,14.005,68.6,39.314,93.5
				c25.209,24.8,58.721,38.4,94.334,38.4c35.913,0,69.525-13.7,94.534-38.5c25.209-24.8,39.014-58,39.014-93.5
				c0-35.2-13.905-68.3-39.014-93.2C313.019,615.16,279.407,601.36,243.594,601.36z M243.694,845.36
				c-62.623,0-113.541-50.2-113.541-112s50.918-112,113.541-112s113.541,50.2,113.541,112
				C357.235,796.16,307.417,845.36,243.694,845.36z"/>
		</g>
	</g>
</g>
<g>
</g>
<g>
</g>
<g>
</g>
<g>
</g>
<g>
</g>
<g>
</g>
<g>
</g>
<g>
</g>
<g>
</g>
<g>
</g>
<g>
</g>
<g>
</g>
<g>
</g>
<g>
</g>
<g>
</g>
</svg>
